<?xml version="1.0" encoding="UTF-8"?>
<svg width="180px" height="180px" viewBox="0 0 180 180" version="1.1" xmlns="http://www.w3.org/2000/svg" xmlns:xlink="http://www.w3.org/1999/xlink">
    <!-- Generator: Sketch 42 (36781) - http://www.bohemiancoding.com/sketch -->
    <title>Cloud</title>
    <desc>Created with Sketch.</desc>
    <defs></defs>
    <g id="Page-1" stroke="none" stroke-width="1" fill="none" fill-rule="evenodd">
        <g id="Cloud" fill="#979797">
            <path d="M77.3959596,110.639697 C77.3959596,110.639697 69.7363636,114.67101 68.0030303,118.582121 C66.5171717,121.935657 68.0979798,124.608384 70.8909091,125.806364 C73.6828283,127.005354 76.7090909,126.307374 78.1141414,122.919495 C79.7545455,118.96798 77.3959596,110.639697 77.3959596,110.639697" id="drop5"></path>
            <path d="M50.1194949,121.553434 C48.6336364,124.90697 50.2144444,127.579697 53.0063636,128.777677 C55.7992929,129.975657 58.8255556,129.278687 60.2306061,125.890808 C61.87,121.938283 59.5124242,113.61101 59.5124242,113.61101 C59.5124242,113.61101 51.8528283,117.642323 50.1194949,121.553434" id="drop4"></path>
            <path d="M81.6646465,143.567576 C84.4575758,144.765556 87.4838384,144.068586 88.8888889,140.680707 C90.5282828,136.728182 88.1707071,128.400909 88.1707071,128.400909 C88.1707071,128.400909 80.5111111,132.432222 78.7777778,136.343333 C77.2919192,139.696869 78.8727273,142.369596 81.6646465,143.567576 Z" id="drop3"></path>
            <path d="M101.297879,126.940606 C99.8120202,130.294141 101.392828,132.966869 104.184747,134.164848 C106.977677,135.362828 110.003939,134.665859 111.40899,131.27798 C113.048384,127.325455 110.690808,118.998182 110.690808,118.998182 C110.690808,118.998182 103.031212,123.029495 101.297879,126.940606" id="drop2"></path>
            <path d="M87.5697432,111.942424 C86.0838847,115.29596 87.6646927,117.968687 90.4566119,119.166667 C93.2495412,120.364646 96.2758038,119.667677 97.6808544,116.279798 C99.3202483,112.327273 96.9626725,104 96.9626725,104 C96.9626725,104 89.3030766,108.031313 87.5697432,111.942424" id="drop1"></path>
            <path d="M90,86.9888217 C94.7110722,82.6433585 86.9465817,65.1781644 82.9288533,58.9930495 C80.5213218,55.2867615 69.1572392,50.1326308 62.339293,55.6384264 C55.1816642,61.4185308 53.7515009,71.2161324 59.4052577,79.0206043 C67.8753526,90.7127623 86.222133,90.4735024 90,86.9888217 Z" id="cloud5"></path>
            <path d="M87.7605911,82.9044263 C86.5138987,75.5687028 68.9239285,82.1090415 61.9848382,79.6675315 C54.1857323,76.9234262 44.3292099,78.5388007 41.8845097,87.0025153 C38.2652377,99.5326753 50.3367426,105.886234 60.5081262,106.912072 C70.8542456,107.955533 78.3324459,103.263569 81.8709904,99.3253763 C83.3388057,97.6917839 88.0626344,84.6816942 87.7605911,82.9044263 Z" id="cloud4"></path>
            <path d="M86.4841762,102.209244 C108.225643,110.211674 125.709585,104.227179 131.797162,100.603963 C139.755862,95.8670885 142.203266,86.4596251 131.797162,79.0388331 C124.320077,73.7067805 80.9873949,69.0210873 75.587289,77.0031674 C67.4971975,88.9614066 81.5952992,100.409784 86.4841762,102.209244 Z" id="cloud3"></path>
            <path d="M102.301234,95.8619009 C108.095076,98.6020918 126.913474,88.7812324 131.143145,82.7390746 C133.677679,79.1184504 134.692005,67.030972 127.033072,62.7719897 C118.992558,58.3008171 111.162549,61.1993368 106.044303,69.3650154 C98.3764765,81.5983101 97.6550807,93.6645079 102.301234,95.8619009 Z" id="cloud2"></path>
            <path d="M97.129752,90 C108.156319,91.0355872 115.620518,70.1917141 114.72232,61.4327713 C113.824122,52.6738285 108.781567,46.3924782 98.5,46 C88.9501731,46 84.5287929,50.6554573 82.8620296,58.2278123 C81.1952662,65.8001673 81.6213587,88.543491 97.129752,90 Z" id="cloud1"></path>
        </g>
    </g>
</svg>