<?xml version="1.0" encoding="UTF-8"?>
<svg width="180px" height="180px" viewBox="0 0 180 180" version="1.1" xmlns="http://www.w3.org/2000/svg" xmlns:xlink="http://www.w3.org/1999/xlink">
    <!-- Generator: Sketch 42 (36781) - http://www.bohemiancoding.com/sketch -->
    <title>Eye</title>
    <desc>Created with Sketch.</desc>
    <defs></defs>
    <g id="Page-1" stroke="none" stroke-width="1" fill="none" fill-rule="evenodd">
        <g id="Eye">
            <path d="M40,89.1682663 C40,89.1682663 59.087037,117.146141 90,116.316343 C120.912963,117.146141 140,89.1682663 140,89.1682663 C140,89.1682663 120.912963,61.1885398 90,62.018337 C59.087037,61.1885398 40,89.1682663 40,89.1682663 Z" id="back" fill="#9A9A9A"></path>
            <path d="M90,112.395181 C77.2574074,112.395181 66.8518519,101.987523 66.8518519,89.1682663 C66.8518519,76.3471577 77.2574074,65.9394996 90,65.9394996 C102.818519,65.9394996 113.148148,76.3471577 113.148148,89.1682663 C113.148148,101.987523 102.742593,112.395181 90,112.395181" id="iris" fill="#FFFFFF"></path>
            <path d="M90,77.5661076 C83.5944444,77.5661076 78.4018519,82.7597494 78.4018519,89.1665993 C78.4018519,95.5753014 83.5944444,100.768943 90,100.768943 C96.4055556,100.768943 101.6,95.5753014 101.6,89.1665993 C101.6,82.7597494 96.4055556,77.5661076 90,77.5661076" id="pupil" fill="#9B9B9B"></path>
        </g>
    </g>
</svg>