<?xml version="1.0" encoding="utf-8"?>
<!-- Generator: Adobe Illustrator 21.0.2, SVG Export Plug-In . SVG Version: 6.00 Build 0)  -->
<svg version="1.1" xmlns="http://www.w3.org/2000/svg" xmlns:xlink="http://www.w3.org/1999/xlink" x="0px" y="0px" width="324px"
	 height="324px" viewBox="0 0 324 324" enable-background="new 0 0 324 324" xml:space="preserve">
<g id="_x31_.Pin" display="none">
	<path id="pinBottom" display="inline" fill="#E81D2D" d="M156.33,148.69l-0.01,68.04c0,0,1,17.79,5.68,20.27
		c4.68-2.48,5.68-20.27,5.68-20.27l-0.01-68.04H156.33z"/>
	<path id="pinTop" display="inline" fill="#E81D2D" d="M167.67,168.69l29.89,0c0-12.17-5.39-23.21-15.21-28.92V99.97
		c5.78-2.56,11.77-7.35,11.77-12.97h-64.26c0,5.61,5.99,10.41,11.77,12.97v39.81c-9.82,5.71-15.21,16.74-15.21,28.92l29.89,0H167.67
		z"/>
</g>
<g id="_x32_.Good" display="none">
	<path id="pinBottom_1_" display="inline" fill="#E81D2D" d="M156.33,162.69l-0.01,54.04c0,0,1,17.79,5.68,20.27
		c4.68-2.48,5.68-20.27,5.68-20.27l-0.01-54.04H156.33z"/>
	<path id="pinTop_1_" display="inline" fill="#E81D2D" d="M167.67,168.69l29.89,0c0-12.17-5.39-23.21-15.21-28.92V99.97
		c5.78-2.56,11.77-7.35,11.77-12.97h-64.26c0,5.61,5.99,10.41,11.77,12.97v39.81c-9.82,5.71-15.21,16.74-15.21,28.92l29.89,0H167.67
		z"/>
	<circle id="rightEye" display="inline" fill="#231F20" cx="173.15" cy="119.89" r="3.89"/>
	<circle id="leftEye" display="inline" fill="#231F20" cx="150.85" cy="119.89" r="3.89"/>
	<path id="mouth" display="inline" fill="#231F20" d="M162,146.77c-4.85,0-9.42-1.89-12.85-5.32l3.81-3.81
		c2.42,2.42,5.63,3.75,9.04,3.75c3.42,0,6.63-1.33,9.04-3.75l3.81,3.81C171.42,144.88,166.85,146.77,162,146.77z"/>
</g>
<g id="_x33_.Ok" display="none">
	<path id="pinTop_2_" display="inline" fill="#B4B4B5" d="M156.43,158.06l-0.01-51.17c0,0,0.98-17.46,5.57-19.9
		c4.6,2.43,5.57,19.9,5.57,19.9l-0.01,51.17H156.43z"/>
	<path id="pinBottom_2_" display="inline" fill="#B4B4B5" d="M167.57,154.06l29.35,0c0,11.95-5.3,22.78-14.93,28.39v41.82
		c5.68,2.51,11.56,7.22,11.56,12.73h-63.09c0-5.51,5.88-10.22,11.56-12.73v-41.82c-9.64-5.61-14.93-16.44-14.93-28.39l29.35,0
		H167.57z"/>
	<circle id="leftEye_1_" display="inline" fill="#231F20" cx="151.45" cy="172.96" r="3.82"/>
	<circle id="rightEye_1_" display="inline" fill="#231F20" cx="172.55" cy="172.96" r="3.82"/>
	<rect id="mouth_1_" x="150.65" y="196.45" display="inline" fill="#231F20" width="22.71" height="5.45"/>
</g>
<g id="_x31_5.Love" display="none">
	<path id="heart" display="inline" fill="#E91E2F" d="M183.43,96.61c-13.55,7.12-21.43,22.5-21.43,22.5s-7.87-15.39-21.43-22.5
		C119.14,85.36,87,96.61,87,130.36c0,33.75,75,101.25,75,101.25s75-67.5,75-101.25C237,96.61,204.86,85.36,183.43,96.61z"/>
	<polygon id="y" display="inline" fill="#FFFFFF" points="129.14,155.45 129.14,170.75 119.52,170.75 119.52,155.45 106.11,142.04 
		112.92,135.24 124.33,146.65 135.74,135.24 142.55,142.04 	"/>
	<path id="o" display="inline" fill="#FFFFFF" d="M161.41,170.75c-9.63,0-17.47-7.84-17.47-17.47s7.84-17.47,17.47-17.47
		s17.47,7.84,17.47,17.47S171.05,170.75,161.41,170.75z M161.41,145.27c-4.41,0-8,3.59-8,8s3.59,8,8,8s8-3.59,8-8
		S165.82,145.27,161.41,145.27z"/>
	<path id="u" display="inline" fill="#FFFFFF" d="M214.88,155.19c0,8.58-6.98,15.56-15.56,15.56c-8.58,0-15.56-6.98-15.56-15.56
		l0-19.39l9.47,0v19.39c0,3.36,2.73,6.09,6.09,6.09c3.36,0,6.09-2.73,6.09-6.09V135.8h9.47V155.19z"/>
</g>
<g id="_x31_76.Orbit" display="none">
	<circle id="center" display="inline" fill="#F2B422" cx="162" cy="162" r="25.35"/>
	<circle id="planet1" display="inline" fill="#F2B422" cx="199.55" cy="120.27" r="8.92"/>
	
		<circle id="orbit1" display="inline" fill="none" stroke="#F2B422" stroke-width="4.5" stroke-miterlimit="10" cx="162" cy="162" r="56.14"/>
	<circle id="planet2" display="inline" fill="#F2B422" cx="120.99" cy="97.77" r="8.92"/>
	
		<circle id="orbit2" display="inline" fill="none" stroke="#F2B422" stroke-width="4.5" stroke-miterlimit="10" cx="162" cy="162" r="76.2"/>
</g>
<g id="_x31_02.Find" display="none">
	<polygon id="background" display="inline" fill="#DF2127" points="87,132.81 128.5,110.98 172.97,133.39 205.58,110.98 237,122.91 
		237,217.2 204.98,206.72 170,228.84 130.28,206.72 87.59,227.68 	"/>
	<path id="p1" display="inline" fill="#FFFFFF" d="M112.5,181.63l-3.95-4.34c-1.86,1.63-3.69,3.44-5.46,5.37l4.41,3.89
		C109.12,184.77,110.81,183.12,112.5,181.63"/>
	<path id="p5" display="inline" fill="#FFFFFF" d="M164.01,185.84l-0.23-5.82c-2,0.08-4.06-0.26-6.13-1.01l-2.05,5.46
		c2.53,0.91,5.09,1.38,7.61,1.38C163.48,185.86,163.74,185.85,164.01,185.84"/>
	<path id="p6" display="inline" fill="#FFFFFF" d="M179.16,179.66l-3.7-4.55c-1.9,1.49-3.8,2.65-5.63,3.46l2.42,5.31
		C174.55,182.88,176.87,181.46,179.16,179.66"/>
	<path id="p4" display="inline" fill="#FFFFFF" d="M151.84,175.91l-0.19-0.13c-2.37-1.63-4.25-2.92-6.17-4.03l-3,5.02
		c1.72,0.99,3.51,2.22,5.77,3.78l0.19,0.13L151.84,175.91z"/>
	<path id="p2" display="inline" fill="#FFFFFF" d="M124.01,174.12l-2.38-5.33c-2.3,0.99-4.63,2.26-6.94,3.79l3.32,4.82
		C120.03,176.07,122.04,174.96,124.01,174.12"/>
	<path id="p7" display="inline" fill="#FFFFFF" d="M189.83,168.64l-4.68-3.57c-1.61,2.03-3.12,3.78-4.61,5.36l4.34,3.96
		C186.5,172.69,188.12,170.8,189.83,168.64"/>
	<path id="p3" display="inline" fill="#FFFFFF" d="M138.01,168.61c-2.14-0.6-4.57-1.07-7.65-1.5l-0.83,5.76
		c2.81,0.39,4.99,0.81,6.86,1.33L138.01,168.61z"/>
	<polygon id="x" display="inline" fill="#FFFFFF" points="197.04,163.36 204.1,156.44 211.16,163.36 217.11,157.52 210.05,150.6 
		217.14,143.63 211.19,137.79 204.1,144.75 197.01,137.79 191.06,143.63 198.15,150.6 191.09,157.52 	"/>
</g>
<g id="_x31_66.Storm" display="none">
	<path id="drop5" display="inline" fill="#88BAE4" d="M139.58,186.37c0,0-11.71,6.16-14.36,12.14c-2.27,5.13,0.15,9.21,4.42,11.04
		c4.27,1.83,8.9,0.77,11.04-4.41C143.18,199.1,139.58,186.37,139.58,186.37"/>
	<path id="drop4" display="inline" fill="#88BAE4" d="M97.88,203.05c-2.27,5.13,0.15,9.21,4.41,11.04c4.27,1.83,8.9,0.77,11.04-4.41
		c2.51-6.04-1.1-18.77-1.1-18.77S100.53,197.07,97.88,203.05"/>
	<path id="drop3" display="inline" fill="#88BAE4" d="M146.1,236.71c4.27,1.83,8.9,0.77,11.04-4.41c2.51-6.04-1.1-18.77-1.1-18.77
		s-11.71,6.16-14.36,12.14C139.42,230.79,141.84,234.88,146.1,236.71z"/>
	<path id="drop2" display="inline" fill="#88BAE4" d="M176.12,211.29c-2.27,5.13,0.15,9.21,4.41,11.04
		c4.27,1.83,8.9,0.77,11.04-4.41c2.51-6.04-1.1-18.77-1.1-18.77S178.77,205.31,176.12,211.29"/>
	<path id="drop1" display="inline" fill="#88BAE4" d="M155.13,188.36c-2.27,5.13,0.15,9.21,4.41,11.04
		c4.27,1.83,8.9,0.77,11.04-4.41c2.51-6.04-1.1-18.77-1.1-18.77S157.78,182.38,155.13,188.36"/>
	<path id="cloud5" display="inline" fill="#88BAE4" d="M158.85,150.21c7.2-6.64-4.67-33.35-10.81-42.8
		c-3.68-5.67-21.05-13.55-31.48-5.13c-10.94,8.84-13.13,23.82-4.49,35.75C125.02,155.9,153.07,155.53,158.85,150.21z"/>
	<path id="cloud4" display="inline" fill="#88BAE4" d="M155.42,143.96c-1.91-11.22-28.8-1.22-39.41-4.95
		c-11.92-4.2-26.99-1.73-30.73,11.21c-5.53,19.16,12.92,28.87,28.47,30.44c15.82,1.6,27.25-5.58,32.66-11.6
		C148.66,166.57,155.89,146.68,155.42,143.96z"/>
	<path id="cloud3" display="inline" fill="#88BAE4" d="M153.47,173.48c33.24,12.23,59.97,3.09,69.28-2.45
		c12.17-7.24,15.91-21.62,0-32.97c-11.43-8.15-77.68-15.32-85.94-3.11C124.44,153.22,146,170.73,153.47,173.48z"/>
	<path id="cloud2" display="inline" fill="#88BAE4" d="M177.65,163.77c8.86,4.19,37.63-10.83,44.1-20.06
		c3.87-5.54,5.43-24.02-6.28-30.53c-12.29-6.84-24.26-2.4-32.09,10.08C171.65,141.97,170.55,160.41,177.65,163.77z"/>
	<path id="cloud1" display="inline" fill="#88BAE4" d="M169.75,154.81c16.86,1.58,28.27-30.28,26.9-43.68
		c-1.37-13.39-9.08-22.99-24.8-23.59c-14.6,0-21.36,7.12-23.91,18.69C145.39,117.81,146.04,152.58,169.75,154.81z"/>
</g>
<g id="_x31_61.Light" display="none">
	<polygon id="sun" display="inline" fill="#FAB416" points="162,106.94 180.08,87.55 187.08,113.12 212.1,104.35 206.41,130.25 
		232.64,134.11 215.57,154.4 237,170.01 212.46,180.04 224.18,203.82 197.78,201.3 197.11,227.8 174.91,213.3 162,236.45 
		149.09,213.3 126.89,227.8 126.22,201.3 99.82,203.82 111.54,180.04 87,170.01 108.43,154.4 91.36,134.11 117.59,130.25 
		111.9,104.35 136.92,113.12 143.92,87.55 	"/>
</g>
<g id="_x31_88.Nice">
	<path id="letter" fill="#658CC8" d="M234.95,160.94c-1.29-1.03-2.81-1.16-4.08-0.35h0c-7.23,4.61-12.34,7-20.21,7.25
		c-2.31,0.07-5.18-0.04-6.94-1.6c-0.02-0.02-0.04-0.04-0.06-0.05c5.77-4.78,9.51-9.66,11.12-14.5c1.28-3.84,0.83-7.59-1.23-10.3
		c-1.96-2.57-5.14-3.88-8.92-3.69c-4.58,0.23-11.82,4.7-13,16.03c-0.34,3.3,0.11,6.93,1.28,10.25c-1.61,1.09-3.25,2.08-4.9,2.94
		l-0.4,0.21c-2.93,1.53-5.69,2.98-8.92,3.1c-4.64,0.17-6.95-2.08-7.29-7.08c-0.24-3.44,0.92-7.02,3.45-10.66
		c0.27-0.4,0.53-0.73,0.72-0.95c2.26-1.75,4.48-1.78,6.6-0.09c1.7,1.36,3.87,0.74,5.17-0.4c1.49-1.32,1.84-3.16,0.9-4.71
		c-1.58-2.57-4.2-4.19-7.4-4.56c-3.9-0.45-8.18,1.05-10.88,3.78c-2.45,2.09-4.49,4.94-5.92,8.25c-0.56,1.3-0.85,2.46-1.13,3.58
		c-0.29,1.16-0.57,2.25-1.12,3.36c-0.95,1.93-2.3,3.97-3.99,6.04l-0.19,0.24c-2.39,2.95-4.07,4.35-4.96,4.15
		c-0.03-0.01-0.14-0.03-0.26-0.22c-1.08-1.74,0.14-9.43,1.82-16.27c0.1-0.36,0.19-0.72,0.29-1.08c0.1-0.37,0.19-0.74,0.3-1.11
		c0.98-3.48-0.67-5.31-2.38-5.82c-1.97-0.58-4.48,0.38-5.31,3c-0.49,1.56-0.93,3.12-1.32,4.62c-1.09,3.5-2.35,6.87-3.77,10
		l-0.3,0.69c-1.25,2.86-4.18,9.58-7.32,8.54c-2.53-0.83-1.6-5.16-1.04-7.74c0.09-0.43,0.17-0.81,0.23-1.13
		c0.33-1.84,0.77-3.71,1.18-5.52c0.8-3.46,1.63-7.03,1.83-10.65c0.24-4.27,0.02-9.52-3.8-12.23c-3.79-2.68-7.58-3-11.93-1.01
		c-4.11,1.88-7.71,5.27-10.72,10.07c-0.23-3.42-1.28-8.94-5.4-11.91c-5-3.6-12.59-2.82-17.04,0.02c-2.34,1.5-2.48,4.37-1.26,6.28
		c0.94,1.47,2.8,2.37,4.85,1.07c2.39-1.53,5.14-2,7.15-1.23c1.53,0.58,2.6,1.86,3.11,3.68c0.94,3.39,0.34,7.11-0.24,10.7
		c-0.12,0.71-0.23,1.42-0.33,2.11c-0.51,3.49-1.08,7.03-1.63,10.45c-1.03,6.38-2.1,12.97-2.78,19.51c-0.25,2.4,1.6,4.02,3.56,4.39
		c1.73,0.33,3.75-0.35,4.36-2.59c0.56-2.04,1.1-4.09,1.65-6.13c1.7-6.34,3.45-12.9,5.49-19.25c1.34-4.15,2.71-8.17,4.86-11.77
		c1.69-2.83,6.06-9.31,10.15-8.52c0.59,0.11,1.04,0.41,1.37,0.91c1.41,2.12,0.35,7.09-0.21,9.77c-0.08,0.36-0.15,0.69-0.2,0.96
		c-0.3,1.52-0.66,3.07-1,4.57c-0.87,3.75-1.76,7.62-1.84,11.56c-0.08,4.05,1.79,8.06,4.77,10.22c2.49,1.81,5.57,2.21,8.66,1.13
		c2.75-0.96,5.06-2.91,7.23-6.1c1,1.84,2.56,3.1,4.55,3.65c2.92,0.81,6.43,0,9.39-2.16c1.94-1.42,3.86-3.31,5.59-5.5
		c0.06,0.12,0.12,0.24,0.18,0.36c1.85,3.46,4.56,5.66,8.07,6.54c8.52,2.14,19.24-3.96,23.83-6.97c0.72,0.8,1.47,1.49,2.25,2.07
		c6.01,4.49,14.15,4.28,24.83-0.64c-1.39,1.74-2.82,3.24-4.33,4.55c-8.71,7.59-21.62,10.72-30.92,12.01
		c-8.79,1.22-17.83,1.01-26.57,0.82c-10.67-0.24-21.71-0.49-32.43,1.84c-12.13,2.63-23.53,8.57-33.89,17.66
		c-1.14,1-1.61,2.32-1.33,3.73c0.3,1.51,1.46,2.86,2.89,3.34c0.39,0.13,0.79,0.2,1.18,0.2c0.9,0,1.77-0.35,2.54-1.02
		c9.66-8.46,20.13-13.87,31.14-16.08c9.89-1.99,20.15-1.75,30.06-1.51l0.27,0.01c11.07,0.26,21.04,0.33,30.98-1.46
		c9.06-1.63,21.79-5.19,30.96-12.91c6.67-5.61,8.81-9.41,11.86-17.98C237.08,164.08,236.44,162.12,234.95,160.94z M207.29,146.27
		c1.45,1.71-0.78,5.68-6.12,10.89c-0.42,0.41-0.85,0.81-1.28,1.21c-0.23-1.48-0.25-2.93-0.05-4.24c0.35-2.37,1.4-4.96,2.66-6.6
		c0.69-0.89,2.17-1.87,3.37-1.89c0.02,0,0.04,0,0.05,0C206.48,145.64,206.93,145.84,207.29,146.27z"/>
	<circle id="dot" fill="#658CC8" cx="154.49" cy="137.37" r="4.62"/>
	<path id="path_1_" fill="none" d="M89.71,136.88c2.79-1.27,4.13-2.08,7.19-2.08s9.27,2.11,9.27,10.17s-3.25,29.82-5.44,40.83
		c2.13-11.17,6.47-23.44,11.34-35.81c4.73-12,12.92-12.66,14.13-12.64c2.12,0.03,7.93,2.17,6.39,10.57s-3.77,16.72-3.77,20.16
		s1.25,9.16,5.99,9.16s8.24-6.16,10.36-9.91s5.9-17.37,5.9-17.37s-4.9,16.43-3.15,20.43s4.8,5.84,9.43,2.14s6.8-7.66,8-9.74
		c1.21-2.08,2.41-10.31,7.12-14.43s7.9-3.87,12.12-0.87c-5.95-4.33-10.08-0.97-12.12,0.87s-5.7,7.37-5.08,14.46
		c0.18,2.1,1.07,8.98,7.45,10.39c5.46,1.21,12.64-0.8,19.26-5.7c8.19-6.06,13.45-11.81,15.75-15.09c3-4.29,1.31-11.41-4.05-11.37
		c-3.12,0.03-10.45,4.39-10.45,14.14s5.61,16.54,14.02,16.54s18.12-3.04,23.21-8.13c0,0-2.79,9.52-10.19,15.84
		c-9.75,8.33-29.43,12.57-38.59,13.67c-9.15,1.09-15,0-37.5,0s-35.17,9.83-47.65,18.82"/>
</g>
<g id="_x32_38.Simmer" display="none">
	<path id="leftSmoke" display="inline" fill-rule="evenodd" clip-rule="evenodd" fill="#555555" d="M146.11,143.57
		c-0.72,0.84-1.07,1.9-0.98,3c0.08,1.11,0.59,2.11,1.43,2.83c0.75,0.64,1.7,1,2.69,1c1.21,0,2.35-0.52,3.14-1.44
		c7.23-8.4,8.21-17.52,2.76-25.67c-1.42-2.13-2.7-4.45-2.43-7c0.44-4.09,3.52-6.76,3.86-7.04c1.79-1.39,2.13-3.98,0.76-5.78
		c-0.67-0.88-1.65-1.45-2.75-1.59c-1.1-0.16-2.18,0.14-3.04,0.81c-0.06,0.05-6.2,4.7-7.06,12.73c-0.55,5.21,1.76,9.45,3.83,12.56
		C149.53,129.78,153.22,135.29,146.11,143.57z"/>
	<path id="rightSmoke" display="inline" fill-rule="evenodd" clip-rule="evenodd" fill="#555555" d="M167.12,143.57
		c-0.72,0.84-1.07,1.9-0.99,3c0.08,1.1,0.59,2.11,1.43,2.83c0.75,0.65,1.7,1,2.69,1c1.21,0,2.35-0.53,3.14-1.44
		c5.34-6.22,6.05-12.98,1.98-19.05c-0.83-1.25-1.58-2.58-1.44-3.89c0.25-2.32,2.12-3.88,2.13-3.89c1.78-1.39,2.12-3.98,0.75-5.77
		c-0.67-0.88-1.65-1.45-2.74-1.59c-1.09-0.16-2.18,0.14-3.05,0.81c-0.48,0.37-4.68,3.75-5.31,9.57c-0.42,3.98,1.29,7.12,2.82,9.42
		C169.36,135.79,171.3,138.7,167.12,143.57z"/>
	<path id="pot" display="inline" fill-rule="evenodd" clip-rule="evenodd" fill="#555555" d="M235.24,181.7
		c-0.77-3.33-4.07-5.36-7.41-4.63l-12.52,2.89v-15.37H113.08v15.37l-12.52-2.89c-3.32-0.73-6.64,1.3-7.41,4.63
		c-0.77,3.32,1.3,6.64,4.63,7.41l15.3,3.53v14.58v14.96c0,11.32,9.27,20.58,20.58,20.58h61.07c11.32,0,20.59-9.27,20.59-20.58
		v-14.59v-14.95l15.3-3.53C233.94,188.34,236.01,185.02,235.24,181.7z"/>
</g>
<g id="_x33_1.Point" display="none">
	<path id="hand" display="inline" fill="#DF2127" d="M122.74,228.68c-21.71-15.32-28.04-44.31-15.55-67.07
		c0.84-1.84,1.77-3.73,2.84-5.68c9.55-17.43,9.97-33.06,9.6-36.02c-0.37-2.97-1.41-13.63,5.17-14.15c3.67-0.29,8.29,2.47,11.05,5.92
		c5.02,4.97,8.34,16.69,8.19,30.46l34.78-49.31c2.93-4.15,8.18-5.68,12.74-4.09c0.03,0.01,0.06,0.02,0.09,0.03
		c0.41,0.15,0.81,0.32,1.2,0.51c0.08,0.04,0.16,0.08,0.24,0.12c0.42,0.22,0.83,0.46,1.22,0.74c0,0,0.01,0.01,0.01,0.01
		s0.01,0,0.01,0.01c0.4,0.28,0.76,0.59,1.11,0.9c0.07,0.06,0.13,0.13,0.2,0.19c0.32,0.3,0.61,0.62,0.89,0.96
		c0.02,0.02,0.04,0.05,0.06,0.07c3.03,3.77,3.35,9.23,0.43,13.38l-20.44,28.98c3.59-1.91,8.09-1.78,11.64,0.72
		c5.02,3.54,6.22,10.48,2.68,15.5c-0.03,0.05-0.07,0.09-0.1,0.13c3.55-1.79,7.95-1.62,11.42,0.84c5.02,3.54,6.22,10.48,2.68,15.5
		c-0.14,0.2-0.3,0.39-0.45,0.58c3.47-1.57,7.66-1.32,11,1.03c5.02,3.54,6.55,9.85,3.01,14.87l-0.03,0.04c0,0-7.9,13.17-23.09,31.97
		c-0.58,0.72-1.2,1.42-1.82,2.11C176.72,239.82,145.49,244.73,122.74,228.68z"/>
</g>
<g id="_x31_96.Direction" display="none">
	<path id="circle" display="inline" fill="#555555" d="M108.97,108.97c-29.29,29.29-29.29,76.78,0,106.07s76.78,29.29,106.07,0
		s29.29-76.78,0-106.07S138.26,79.68,108.97,108.97"/>
	<path id="arrow" display="inline" fill="#FFFFFF" d="M195.52,123.12l-37.53,18.77c-5.9,2.95-13.15,10.2-16.1,16.1l-18.77,37.53
		c-2.95,5.9-0.54,8.32,5.36,5.37l37.53-18.77c5.9-2.95,13.15-10.2,16.1-16.1l18.77-37.53C203.84,122.58,201.42,120.17,195.52,123.12
		z M165.69,165.69c-2.04,2.04-5.34,2.04-7.37,0c-2.04-2.04-2.04-5.34,0-7.37c2.04-2.04,5.34-2.04,7.37,0
		C167.72,160.35,167.72,163.65,165.69,165.69z"/>
</g>
</svg>
