<?xml version="1.0" encoding="UTF-8"?>
<svg width="180px" height="180px" viewBox="0 0 180 180" version="1.1" xmlns="http://www.w3.org/2000/svg" xmlns:xlink="http://www.w3.org/1999/xlink">
    <!-- Generator: Sketch 42 (36781) - http://www.bohemiancoding.com/sketch -->
    <title>Travel</title>
    <desc>Created with Sketch.</desc>
    <defs></defs>
    <g id="Page-1" stroke="none" stroke-width="1" fill="none" fill-rule="evenodd">
        <g id="Travel" fill="#979797">
            <path d="M101.971261,62.1813782 C77.0042017,64.0146555 67.7016807,61.3857479 62.7857143,59.386084 L51.837479,54.1766723 C50.9238655,53.7440672 49.8347899,54.1312941 49.3991597,55.0449076 C48.9665546,55.958521 49.3537815,57.0506218 50.2643697,57.4832269 L58.9860504,61.6338151 L55.9668908,67.9655798 L55.7460504,68.4254118 L47.0334454,64.2778487 C46.1198319,63.8452437 45.0277311,64.2324706 44.5951261,65.146084 C44.1594958,66.0596975 44.5467227,67.1517983 45.4603361,67.5844034 L54.169916,71.7289412 L51.3262185,77.6946555 L50.929916,78.5205378 L42.2263866,74.3790252 C41.3157983,73.9464202 40.2236975,74.3336471 39.7880672,75.2472605 C39.3554622,76.1608739 39.7426891,77.2529748 40.6563025,77.6855798 L49.3537815,81.8240672 L46.1168067,88.6156639 L46.1168067,88.6156639 L37.4223529,84.4802017 C36.5087395,84.0475966 35.4166387,84.4348235 34.9840336,85.348437 C34.5484034,86.2620504 34.9356303,87.3541513 35.8492437,87.7867563 L44.5406723,91.9222185 L41.3006723,98.7138151 L32.6183193,94.5813782 C31.7047059,94.1487731 30.612605,94.536 30.1769748,95.4496134 C29.7443697,96.3602017 30.1315966,97.4553277 31.0452101,97.8879328 L41.3642017,102.797849 C46.0865546,105.387429 61.7692437,113.785412 78.9463866,112.947429 C103.783361,111.631462 112.096639,113.730958 117.012605,115.730622 L127.96084,120.937008 C128.874454,121.372639 129.966555,120.982387 130.39916,120.071798 C130.83479,119.158185 130.444538,118.066084 129.53395,117.630454 L120.812269,113.482891 L123.831429,107.151126 L124.052269,106.691294 L132.764874,110.835832 C133.678487,111.271462 134.770588,110.88121 135.203193,109.970622 C135.638824,109.057008 135.251597,107.964908 134.337983,107.529277 L125.628403,103.387765 L128.472101,97.4220504 L128.868403,96.5931429 L137.571933,100.734655 C138.482521,101.170286 139.574622,100.780034 140.010252,99.8694454 C140.442857,98.9558319 140.05563,97.8637311 139.142017,97.4281008 L130.444538,93.2896134 L133.681513,86.4980168 L133.681513,86.4980168 L142.375966,90.633479 C143.28958,91.0691092 144.381681,90.6788571 144.814286,89.7682689 C145.249916,88.8546555 144.862689,87.7625546 143.949076,87.3269244 L135.257647,83.1944874 L138.497647,76.4028908 L147.18,80.5323025 C148.093613,80.9679328 149.185714,80.5776807 149.621345,79.6670924 C150.05395,78.753479 149.666723,77.6613782 148.753109,77.2257479 L138.437143,72.3188571 C133.711765,69.7292773 119.157479,62.0331429 101.971261,62.1813782" id="Fill-1"></path>
        </g>
    </g>
</svg>